<?xml version="1.0" encoding="utf-8"?>
<!-- Generator: Adobe Illustrator 21.0.2, SVG Export Plug-In . SVG Version: 6.00 Build 0)  -->
<svg version="1.1" id="Layer_1" xmlns="http://www.w3.org/2000/svg" xmlns:xlink="http://www.w3.org/1999/xlink" x="0px" y="0px"
	 viewBox="0 0 562.5 146.7" style="enable-background:new 0 0 562.5 146.7;" xml:space="preserve">
<style type="text/css">
	.st0{fill:#FFFFFF;}
</style>
<path class="st0" d="M78.2,61.1C67.1,67.4,56.8,70,55.1,67s5.9-10.5,17-16.7c11.1-6.3,21.4-8.9,23.1-5.9
	C96.8,47.4,89.2,54.9,78.2,61.1 M98.1,43.6c-2.4-4.3-14.5-2.1-27,5c-12.5,7-20.6,16.2-18.2,20.5c2.4,4.3,14.5,2.1,27-5
	C92.4,57.1,100.5,47.9,98.1,43.6"/>
<path class="st0" d="M59.4,86c0.1-0.7,0.3-1.4,0.7-2c0.3-0.6,0.8-1.2,1.3-1.7s1.2-0.9,1.9-1.2c0.7-0.3,1.4-0.4,2.2-0.4
	c0.7,0,1.4,0.1,2.1,0.4s1.3,0.6,1.8,1.1s0.9,1.1,1.2,1.9c0.3,0.7,0.4,1.5,0.4,2.3s-0.3,1.6-0.6,2.3c-0.4,0.7-0.9,1.4-1.5,1.9
	c-0.6,0.6-1.4,1-2.2,1.3c-0.8,0.3-1.6,0.4-2.4,0.3c-0.8-0.1-1.5-0.3-2.2-0.6c-0.6-0.3-1.2-0.8-1.6-1.4c-0.4-0.6-0.8-1.2-0.9-2
	C59.3,87.5,59.3,86.7,59.4,86 M58.9,88.4c0.2,0.8,0.6,1.6,1,2.2c0.5,0.7,1.1,1.2,1.8,1.6s1.6,0.7,2.4,0.7c0.9,0.1,1.8,0,2.8-0.3
	c0.9-0.3,1.8-0.8,2.5-1.5c0.7-0.6,1.3-1.4,1.7-2.2c0.4-0.8,0.6-1.7,0.7-2.6c0-0.9-0.1-1.8-0.4-2.6c-0.3-0.8-0.8-1.5-1.4-2.1
	s-1.3-1-2-1.2c-0.7-0.3-1.5-0.4-2.3-0.4s-1.6,0.2-2.4,0.5c-0.8,0.3-1.5,0.8-2.1,1.3s-1.1,1.2-1.5,1.9c-0.4,0.7-0.7,1.5-0.8,2.2
	C58.7,86.8,58.7,87.6,58.9,88.4 M61.2,86.6l0.5,1.7l-1-0.6L61.2,86.6z M63.7,82.1l1.1,0.4L63,83.2L63.7,82.1z M65.4,85.3
	c0.1,0,0.2,0.1,0.3,0.2c0.1,0.1,0.2,0.2,0.2,0.3c0,0.1,0.1,0.3,0,0.4c0,0.1-0.1,0.3-0.1,0.4c-0.1,0.1-0.1,0.2-0.3,0.3
	c-0.1,0.1-0.2,0.2-0.4,0.2c-0.1,0-0.3,0.1-0.4,0.1s-0.3,0-0.4-0.1S64.1,87,64,86.9c-0.1-0.1-0.2-0.2-0.2-0.3v-0.4
	c0-0.1,0.1-0.3,0.1-0.4c0.1-0.1,0.1-0.2,0.2-0.3c0.1-0.1,0.2-0.2,0.4-0.2c0.1-0.1,0.3-0.1,0.4-0.1C65.2,85.2,65.3,85.2,65.4,85.3
	 M67,89.5l-0.7,1.2l-1.2-0.5C65.1,90.2,67,89.5,67,89.5z M69.4,84.5l-0.5,1.2L68.3,84L69.4,84.5z M60.1,89.4
	C60.1,89.5,60.1,89.5,60.1,89.4l0.2,0.2h0.3l3.1-1.1l0.9,3.3c0,0.1,0,0.1,0.1,0.2l0.1,0.1h0.4l2.8-1c0.1,0,0.1,0,0.2-0.1l0.1-0.1
	v-0.4l-1.1-3.3l3.3-1.2c0.1,0,0.1-0.1,0.2-0.1l0.1-0.1v-0.4l-1-2.5c0,0,0-0.1-0.1-0.1l-0.1-0.1h-0.4L66,83.9l-0.9-2.8
	c0,0,0-0.1-0.1-0.1l-0.1-0.1h-0.2l-2.5,1c0,0-0.1,0-0.1,0.1L62,82.1v0.2l0.8,2.8l-3,1.1c-0.1,0-0.1,0-0.1,0.1l-0.1,0.1v0.2
	L60.1,89.4L60.1,89.4z M101.8,74.8c-0.2-0.2-0.4-0.4-0.6-0.5s-0.5-0.2-0.8-0.3h-0.9c-0.3,0.1-0.6,0.2-0.8,0.3
	c-0.2,0.2-0.5,0.4-0.6,0.6c-0.2,0.2-0.3,0.5-0.4,0.7c-0.1,0.3-0.1,0.6,0,0.9c0,0.3,0.2,0.6,0.3,0.8l0.6,0.6c0.2,0.2,0.5,0.3,0.8,0.3
	h0.9c0.3-0.1,0.6-0.2,0.9-0.4c0.3-0.2,0.5-0.4,0.6-0.6c0.2-0.2,0.3-0.5,0.3-0.8c0.1-0.3,0.1-0.6,0-0.8
	C102,75.3,101.9,75.1,101.8,74.8 M111.9,72.7c-0.2-0.2-0.4-0.4-0.6-0.5s-0.5-0.2-0.8-0.3h-0.8c-0.3,0.1-0.5,0.2-0.7,0.3
	c-0.2,0.1-0.4,0.3-0.5,0.5s-0.2,0.4-0.3,0.7c0,0.3,0,0.5,0.1,0.8s0.2,0.5,0.4,0.7c0.2,0.2,0.4,0.4,0.7,0.5c0.2,0.1,0.5,0.2,0.8,0.3
	h0.9c0.3-0.1,0.5-0.2,0.8-0.3c0.2-0.2,0.4-0.4,0.5-0.6s0.2-0.5,0.2-0.7c0-0.3,0-0.5-0.1-0.8C112.3,73.2,112.1,72.9,111.9,72.7
	 M104.5,72.2c0.3-0.1,0.5-0.2,0.8-0.3c0.2-0.1,0.4-0.3,0.5-0.5s0.2-0.4,0.3-0.7V70c-0.1-0.2-0.2-0.5-0.4-0.6
	c-0.2-0.2-0.4-0.3-0.6-0.5c-0.2-0.1-0.5-0.2-0.7-0.3h-0.8c-0.3,0.1-0.5,0.1-0.8,0.3c-0.2,0.1-0.4,0.3-0.5,0.5S102,69.8,102,70
	c-0.1,0.2-0.1,0.5,0,0.7c0.1,0.3,0.2,0.5,0.3,0.7c0.2,0.2,0.4,0.4,0.6,0.5s0.5,0.2,0.8,0.3L104.5,72.2 M108.4,78.7
	c-0.2-0.2-0.4-0.4-0.7-0.6c-0.3-0.1-0.5-0.2-0.8-0.3c-0.3-0.1-0.6,0-0.9,0c-0.3,0.1-0.6,0.2-0.8,0.4l-0.6,0.6
	c-0.2,0.3-0.3,0.5-0.3,0.8v0.9c0.1,0.3,0.2,0.6,0.4,0.9c0.2,0.3,0.4,0.5,0.7,0.6c0.3,0.2,0.6,0.3,0.9,0.3h1c0.3-0.1,0.6-0.2,0.8-0.4
	c0.2-0.2,0.4-0.4,0.6-0.7c0.1-0.3,0.2-0.5,0.3-0.8c0-0.3,0-0.6-0.1-0.9C108.8,79.3,108.6,79,108.4,78.7 M113,74.5
	c0,0.3-0.1,0.6-0.3,0.9c-0.1,0.3-0.4,0.5-0.6,0.7c-0.3,0.2-0.6,0.3-0.9,0.4c-0.4,0.1-0.7,0.1-1.1,0c-0.3-0.1-0.7-0.2-1-0.3
	c-0.3-0.2-0.6-0.4-0.8-0.7c-0.2-0.3-0.4-0.6-0.5-0.9s-0.1-0.7-0.1-1s0.1-0.6,0.3-0.8c0.2-0.2,0.4-0.5,0.6-0.6
	c0.3-0.2,0.6-0.3,0.9-0.4s0.7-0.1,1,0l0.9,0.3c0.3,0.2,0.6,0.4,0.8,0.6c0.2,0.2,0.4,0.5,0.5,0.8C113,73.9,113,74.2,113,74.5
	 M109.5,80.8c0,0.4-0.2,0.7-0.3,1c-0.2,0.3-0.4,0.6-0.7,0.8c-0.3,0.2-0.6,0.4-1,0.5s-0.8,0.1-1.2,0c-0.4-0.1-0.7-0.2-1.1-0.4
	c-0.3-0.2-0.6-0.5-0.8-0.8c-0.2-0.3-0.4-0.7-0.5-1c-0.1-0.4-0.1-0.8,0-1.1c0.1-0.4,0.2-0.7,0.4-1c0.2-0.3,0.4-0.6,0.7-0.8
	c0.3-0.2,0.6-0.4,1-0.4c0.4-0.1,0.7-0.1,1.1,0s0.7,0.2,1,0.4c0.3,0.2,0.6,0.4,0.8,0.7c0.2,0.3,0.4,0.6,0.5,1S109.5,80.4,109.5,80.8
	 M101.9,71.8c-0.2-0.2-0.3-0.5-0.4-0.8s-0.1-0.6,0-0.9s0.2-0.5,0.4-0.8c0.2-0.2,0.4-0.4,0.7-0.6c0.3-0.2,0.6-0.3,0.9-0.3
	c0.3-0.1,0.7-0.1,1,0c0.3,0,0.6,0.2,0.9,0.3c0.3,0.1,0.5,0.3,0.7,0.6c0.2,0.2,0.4,0.5,0.4,0.8c0.1,0.3,0.1,0.6,0.1,0.9
	s-0.2,0.6-0.3,0.8c-0.2,0.2-0.4,0.5-0.7,0.6c-0.3,0.2-0.6,0.3-0.9,0.4c-0.4,0.1-0.7,0.1-1,0s-0.7-0.2-0.9-0.3
	C102.4,72.3,102.1,72.1,101.9,71.8 M102.6,76.7c-0.1,0.3-0.2,0.7-0.4,1c-0.2,0.3-0.5,0.5-0.8,0.8c-0.3,0.2-0.7,0.4-1,0.4
	c-0.4,0.1-0.8,0.1-1.1,0c-0.4-0.1-0.7-0.2-1-0.4c-0.3-0.2-0.6-0.4-0.8-0.7c-0.2-0.3-0.3-0.6-0.4-1s0-0.7,0.1-1s0.2-0.6,0.4-0.9
	c0.2-0.3,0.5-0.5,0.8-0.7s0.6-0.3,1-0.4s0.7-0.1,1.1,0c0.3,0.1,0.7,0.2,1,0.3c0.3,0.2,0.5,0.4,0.7,0.6c0.2,0.3,0.4,0.6,0.4,0.9
	C102.7,76.1,102.7,76.4,102.6,76.7 M96.4,92.1c0,0.2,0.1,0.4,0.1,0.6c0.7,2.3,3.1,3.7,5.4,3s3.7-3.1,3-5.4c-0.1-0.3-0.2-0.6-0.3-0.8
	c0.3,0.4,0.5,0.8,0.6,1.3c0.7,2.4-0.7,4.9-3.1,5.6s-4.9-0.7-5.6-3.1C96.4,92.8,96.4,92.4,96.4,92.1 M99.6,87.8
	c1.4-0.4,2.9,0.1,3.7,1.3c-0.9-0.5-2.2-0.7-3.5-0.4c-1.3,0.4-2.2,1.2-2.7,2.1C97.3,89.5,98.2,88.2,99.6,87.8 M94.5,92.5
	c-2.1,0.3-4.2,0.7-5.9,1.2c-1.7,0.5-3.7,1.3-5.6,2.1c-0.1-0.2-0.2-0.4-0.3-0.5c2-0.9,4-1.7,5.7-2.2s3.8-0.9,6-1.2
	C94.5,92.1,94.5,92.3,94.5,92.5 M87.3,78.4c0.9-0.2,1.9-0.3,2.9-0.4c0.3,0,0.6,0.2,0.7,0.5V79c0,0.3-0.2,0.6-0.5,0.6
	c-0.9,0.1-1.8,0.2-2.7,0.4c-0.3,0.1-0.6-0.1-0.7-0.5c0-0.2-0.1-0.3-0.1-0.4C86.8,78.8,87,78.5,87.3,78.4 M78.7,103
	c-2.4,0.7-4.9-0.7-5.6-3.1c-0.1-0.4-0.2-0.8-0.2-1.2c0,0.2,0.1,0.5,0.1,0.7c0.7,2.3,3.1,3.7,5.4,3s3.7-3.1,3-5.4
	c-0.1-0.2-0.2-0.5-0.3-0.7c0.2,0.3,0.4,0.7,0.5,1.1C82.5,99.8,81.1,102.3,78.7,103 M76.3,94.6c1.4-0.4,2.9,0.1,3.7,1.3
	c-0.9-0.6-2.2-0.7-3.5-0.3c-1.3,0.4-2.2,1.2-2.7,2.1C73.9,96.2,74.9,95,76.3,94.6 M74.3,86.7c0,1.2-0.3,2.4-0.9,3.5
	c-0.5,1.1-1.3,2.2-2.3,3c-1,0.9-2.1,1.5-3.4,2c-0.1,0-0.2,0.1-0.3,0.1c-1.1,0.3-2.3,0.4-3.4,0.3c-1.2-0.1-2.3-0.5-3.3-1.1
	s-1.8-1.3-2.4-2.2c-0.6-0.9-1.1-1.9-1.3-3c-0.2-1-0.2-2.1,0-3.2c0.2-1,0.5-2,1.1-2.9c0.2-0.4,0.4-0.7,0.7-1
	c-0.2,0.3-0.4,0.5-0.5,0.8c-0.5,0.9-0.8,1.8-1,2.8s-0.2,2.1,0,3.1c0.2,1.1,0.7,2,1.3,2.9s1.4,1.6,2.3,2.1c0.9,0.5,2,0.9,3.1,1
	c1.2,0.1,2.4,0,3.6-0.4c1.2-0.4,2.3-1.1,3.3-1.9c0.9-0.8,1.7-1.8,2.2-2.9s0.8-2.2,0.8-3.4c0-1.1-0.2-2.3-0.6-3.4
	c-0.5-1-1.1-1.9-1.9-2.6s-1.7-1.2-2.6-1.5c-0.3-0.1-0.7-0.2-1.1-0.3c0.5,0.1,0.9,0.2,1.4,0.3c1,0.3,1.9,0.9,2.7,1.6
	c0.8,0.7,1.5,1.7,2,2.7C74.1,84.4,74.4,85.5,74.3,86.7 M61,81.8c0.6-0.5,1.3-1,2.2-1.3c0.8-0.3,1.7-0.5,2.5-0.5s1.6,0.1,2.4,0.4
	s1.5,0.7,2.1,1.3c0.6,0.6,1.1,1.3,1.5,2.1c0.3,0.9,0.5,1.8,0.5,2.7c0,0.9-0.3,1.8-0.7,2.7c-0.4,0.9-1,1.6-1.7,2.3
	c-1,0.5-1.8,1-2.8,1.3s-1.9,0.4-2.8,0.3s-1.8-0.4-2.5-0.8s-1.4-1-1.9-1.6c-0.5-0.7-0.9-1.4-1.1-2.3c-0.2-0.8-0.2-1.7-0.1-2.5
	s0.4-1.6,0.8-2.3C59.8,83,60.4,82.3,61,81.8 M82.2,81.6c-0.9,0.3-1.7,0.7-2.5,1.1c-0.3,0.1-0.6,0-0.8-0.3c-0.1-0.1-0.1-0.3-0.2-0.4
	c-0.1-0.3,0-0.7,0.3-0.8l2.7-1.2c0.3-0.1,0.7,0,0.8,0.3c0.1,0.1,0.1,0.3,0.2,0.4C82.7,81.1,82.5,81.5,82.2,81.6 M136.2,45.6
	c2.1-0.8,4-2.3,5.3-4.8c0,0-2.6,0.6-6.4,0.9c4.4-1.9,7.6-4.4,7.6-4.4c-2.4,1.4-4.7,2.4-6.7,3.1c2-1.3,3.6-3.4,4.3-6.6
	c0,0-2.1,1.1-5.3,2.3c3.9-3.2,6.3-6.8,6.3-6.8c-2.5,2.6-4.9,4.6-7,6c2-2,3.4-4.8,3.5-9c0,0-1.7,1.8-4.5,3.9c3.1-4.4,4.5-9.1,4.5-9.1
	c-1.7,3.5-3.6,6.3-5.3,8.3c1.5-2.7,2.2-6.1,1.5-10.6c0,0-1.2,2.2-3.2,5.2c2.1-4.8,2.5-9.3,2.5-9.3c-1.1,3.9-2.5,7.1-3.8,9.4
	c1-3.4,1.1-7.4-0.3-12.1c0,0-0.7,2.8-2.1,6.6c0.8-5.8-0.5-11.3-0.5-11.3c0.3,4.5-0.1,8.1-0.6,10.8c0.2-3.6-0.3-7.6-2.2-11.6
	c0,0-0.5,6.3-2.2,13.7c-0.5-2-1.1-3.4-1.1-3.4c0,6-2.2,11.1-3.5,13.1s-1.2,3.5-1.2,3.5c-0.4-1.2,0.2-4,0.2-4
	c-2.1,5.7-1.9,5.7,2.4,11.4c1.7,2.3,2,4.6,1.7,6.4c-0.7,3.7-4,6.4-5.1,7.8c-0.3,0.4-0.5,0.9-0.6,1.3c-0.1-1.4,0-3.2,0.9-5.2
	c0,0-4.5,5.8-3.7,14.4c-3.4-2.8-7.1-3.7-10.7-2.7c-0.3,0.1-0.7,0.2-1,0.4c-0.2,0.1-0.3,0.2-0.3,0.3c3.9-0.9,8,0.1,11.8,3
	c0.1,0.1,0.2,0.2,0.4,0.3c0,0.1,0,0.2,0.1,0.4c-5-4-10.8-5.1-16.7-1.2c-0.4,0.3-0.7,0.5-1,0.7c0.6,6.8,0.4,12.7-0.7,17.1
	c-0.6,2.6-1.5,4.6-2.6,6c2.8-3.9,3.7-12.2,2.7-22.6c-1.3,0.8-3.3,1.5-11.8,3.9c-8.5,2.5-10.5,3-12.1,3c4.7,9.3,9.9,15.8,14.4,17.7
	c-1.7-0.6-3.5-1.8-5.4-3.6c-3.2-3.2-6.6-8-9.7-14.1h-1.2c-7.3-0.1-11.6,4.2-13.6,10.5c0-0.1-0.1-0.2-0.1-0.3l0.3-0.9
	c1.7-4.5,4.6-7.6,8.4-8.9c-0.1-0.1-0.3-0.1-0.5-0.1c-0.4,0.1-0.7,0.2-1.1,0.3c-3.7,1.1-6.4,4-7.7,8.4c-3.9-8-11-10.5-11-10.5
	c1.9,1.1,2.9,2.7,3.5,3.9c-0.3-0.3-0.7-0.6-1.2-0.8c-1.6-0.6-5.9-1.2-8.5-3.9c-1.2-1.4-2.2-3.5-2-6.3c0.6-7.1,0.7-7.3-4.1-11
	c0,0,2,2.1,2.3,3.3c0,0-0.8-1.4-2.9-2.3c-2.1-1-6.7-4.1-9.9-9.2c0,0,0.2,1.5,0.8,3.4c-5.4-5.3-9.2-10.4-9.2-10.4
	c0.6,4.4,2.3,8,4.4,11c-1.9-2-4.2-4.9-6.3-8.8c0,0,1.8,5.3,5.7,9.8c-3.2-2.4-5.3-4.4-5.3-4.4c1.3,4.7,3.6,8,6.2,10.3
	c-2.3-1.3-5.2-3.2-8.2-5.9c0,0,2.8,3.6,7.1,6.5C12,56.2,9.8,55,9.8,55c1.8,4.1,4.3,6.6,7,8.1c-2.5-0.8-5.5-2.1-8.9-4.2
	c0,0,3.7,3.2,8.7,5.2c-3.5-0.3-5.9-0.9-5.9-0.9c2.3,3.5,5,5.1,7.8,5.7c-2.5-0.1-5.6-0.5-9.1-1.4c0,0,4,1.8,8.9,2.4
	c-3.3,0.7-5.7,0.9-5.7,0.9c2.3,2.3,4.8,3.2,7.2,3.2c-2.1,0.5-4.5,0.8-7.3,1c0,0,4,0.5,8.7-0.3c-3.3,1.7-5.9,2.7-5.9,2.7
	c2.4,1.4,4.8,1.7,7,1.2c-2,0.8-4.4,1.7-7.1,2.3c0,0,4.1-0.3,8.7-1.9c-2.8,2.2-5,3.6-5,3.6c3,0.9,5.7,0.3,8-0.9
	c-2.3,1.7-4.7,3.1-7.3,4.2c0,0,3.5-0.9,7.3-3.1c-2.1,2.2-3.7,3.6-3.7,3.6c2.9,0.2,5.3-0.6,7.3-1.9c-1.4,1.5-3.2,3.2-5.7,4.9
	c0,0,3.5-1.7,6.6-4.6C29.6,87.4,28,89,28,89c3.2-0.3,5.5-1.4,7.3-3.1c-1.1,1.4-2.8,3.3-5.3,5.2c0,0,3.3-1.7,5.9-4.7
	c-1.2,2.6-2.4,4.2-2.4,4.2c3-0.5,5.1-1.8,6.4-3.4c-0.8,1.4-1.8,3-3.2,4.6c0,0,2.3-2,4.1-4.9c-0.6,2.8-1.5,4.7-1.5,4.7
	c3.1-0.7,4.9-2.2,5.7-4.1c-0.3,1.4-0.9,3.1-1.7,4.9c0,0,1.4-2.1,2.3-5c0.2,2.9-0.2,4.7-0.2,4.7c3.1-0.9,4.3-2.6,4.4-4.7
	c0.2,1.6,0.4,3.5,0.3,5.7c0,0,0.5-2.3,0.4-5.2c1,2.7,1.2,4.5,1.2,4.5c0.4-0.2,1-0.7,1.5-1.5c-0.1,1.2-0.1,2.5-0.1,3.8
	c0.4,1.5,0.9,2.8,1.4,4c0,0.3-0.1,0.4-0.1,0.4c0-0.1,0.1-0.2,0.1-0.4c1.6,3.9,3.5,6.7,5.1,9.1c2.4,3.6,4.2,6.2,3.1,10.7
	c1.9,1.5,3.9,2.1,5.6,1.8c1.8-0.4,2.9-2.9,3.6-5.9c-0.2-0.6-0.3-3.5-0.2-6c0.1-1.7,0.2-4.3,0.6-5.8c-0.6-0.7-1-1.5-1.3-2.4
	c-1-3.5,0.9-7.1,4.3-8.1c2.3-0.7,4.7,0.1,6.3,1.7c-1.5-1.4-3.7-1.9-5.8-1.3c-3.3,1-5.2,4.4-4.3,7.7c0.3,0.9,0.7,1.6,1.2,2.3
	c-0.9,2.7-1,10.7-0.7,11.2c0.5-2,0.9-4.2,1.3-6c0.1-0.2,0.1-0.5,0.2-0.7v-0.1c0-0.1,0-0.1,0.1-0.2v-0.1c0-0.1,0-0.1,0.1-0.2v-0.1
	c0-0.1,0.1-0.2,0.1-0.3v-0.5c0,0,0-0.1,0.1-0.1c0,0,0-0.1,0.1-0.1c0,0,0-0.1,0.1-0.1c0-0.1,0.1-0.1,0.1-0.2v-0.1c0,0,0-0.1,0.1-0.1
	v-0.1c0,0,0-0.1,0.1-0.1v-0.1l0.1-0.1l0.2-0.2c1.3,0.6,2.9,0.8,4.4,0.3c2.5-0.7,4.2-2.8,4.5-5.2c1-0.4,2.1-0.9,3.1-1.2
	c0.2-0.1,0.5-0.2,0.7-0.3c0.2-0.1,0.4-0.2,0.7-0.2h0.1c0.2-0.1,0.4-0.1,0.6-0.2h0.1c0.2-0.1,0.4-0.1,0.6-0.2s0.4-0.1,0.6-0.2h0.1
	c0.2-0.1,0.4-0.1,0.7-0.2H91c1.5-0.4,3.1-0.7,4.8-1c1.5,1.9,4.1,2.8,6.6,2c1.5-0.4,2.7-1.4,3.5-2.6c0.1,0,0.2,0.1,0.3,0.1
	c0,0,0.1,0,0.2,0.1c0,0,0.1,0,0.1,0.1h0.1c0,0,0.1,0,0.1,0.1h0.1c0,0,0.1,0,0.1,0.1c0.1,0.1,0.3,0.2,0.5,0.3h0.1l0.1,0.1
	c0.2,0.2,0.5,0.4,0.7,0.6l0.2,0.2c0.2,0.2,0.4,0.3,0.6,0.5c1.4,1.3,2.8,2.9,4.3,4.3c0-0.5-4.3-7.3-6.5-9.1c0.1-0.8,0.1-1.7-0.2-2.6
	c-1-3.3-4.4-5.2-7.7-4.3c-1.9,0.6-3.3,1.9-4,3.6c0.6-2,2.1-3.6,4.2-4.2c3.4-1,6.9,1.1,7.9,4.5c0.3,0.9,0.3,1.9,0.2,2.8
	c1.2,1.1,2.7,3.2,3.6,4.5c1.4,2,2.9,4.5,3,5.2c2.2,2.1,4.4,3.7,6.2,3c1.6-0.6,2.9-2.2,3.8-4.5c-3.3-3.2-3.2-6.4-3.1-10.7
	c0.1-3.7,0.3-8.3-1.5-14.5c-0.6-1-1.2-1.9-1.9-2.8c0.6,0.2,1.2,0.2,1.5,0.2c0-0.1-0.8-1.6-1.4-4.5c1.4,2.5,3.1,4.2,3.1,4.2
	c-1.3-1.8-2.2-3.5-2.8-4.9c1.2,1.7,3.2,2.5,6.2,1.6c0,0-1.3-1.3-2.7-3.9c2.3,1.9,4.6,3,4.6,3c-1.6-1.1-3-2.2-4-3.2
	c1.7,1.1,3.9,1.4,7,0.4c0,0-1.8-1-3.8-3.1c3.1,1.5,6.1,2,6.1,2c-2.1-0.7-3.8-1.5-5.2-2.2c2,0.7,4.4,0.6,7.3-0.6c0,0-1.9-0.7-4.3-2.2
	c3.7,1.2,7.5,0.8,7.5,0.8c-3.1-0.3-5.5-0.9-7.2-1.5c2.3,0.4,5,0.2,7.8-1.3c0,0-2.2-0.6-5.1-1.8c4.2,0.9,8.1,0.4,8.1,0.4
	c-2.9-0.1-5.4-0.6-7.4-1.1c2.4,0,4.8-0.6,7.2-2.3c0,0-2.1-0.3-5.1-1c4.4-0.2,7.8-1.2,7.8-1.2c-3.2,0.4-6.1,0.5-8.4,0.3
	c2.6-0.2,5.2-1.2,7.2-3.6c0,0-2.6,0-6.2-0.3c4.7-1,8.4-3,8.4-3C140.8,44.7,138.4,45.2,136.2,45.6 M53.1,96c0,1,0.1,2.1,0.2,3.2
	c0.2,2.3,0.7,4.4,1.3,6.4c0,0.1,0,0.1,0.1,0.2c0,0.2,0.1,0.3,0.1,0.5c0,0.1,0.1,0.2,0.1,0.2c0,0.2,0.1,0.3,0.2,0.5
	c0,0.1,0.1,0.1,0.1,0.2c0.1,0.2,0.1,0.3,0.2,0.5c0,0.1,0.1,0.1,0.1,0.2c0.1,0.2,0.1,0.3,0.2,0.5c0,0.1,0,0.1,0.1,0.2
	c0.1,0.2,0.1,0.3,0.2,0.5c0,0.1,0.1,0.1,0.1,0.2c0.1,0.2,0.1,0.3,0.2,0.5c0,0.1,0,0.1,0.1,0.2c0.1,0.2,0.1,0.3,0.2,0.5
	c0,0,0,0.1,0.1,0.1c0.1,0.2,0.2,0.3,0.2,0.5c0,0,0,0.1,0.1,0.1c0.1,0.2,0.2,0.3,0.3,0.5v0.1c0.1,0.2,0.2,0.3,0.3,0.5v0.1
	c0.1,0.2,0.2,0.3,0.3,0.5s0.2,0.4,0.3,0.5c1.4,2.2,2.9,3.9,4.4,5.2C64.7,110.7,56.5,109.9,53.1,96 M119.9,76.6
	c4.6,13.6-1.9,18.7,4.1,23.9c1.7-5,1.3-13.1-2.6-21.1C121,78.5,120.5,77.5,119.9,76.6 M300.5,113.5h0.2c0.6,0,0.9,0.3,1,0.8
	c0,0.2,0.1,0.3,0.3,0.3c2.1,0.5,4.1,1.2,5.9,2.3c1.5,0.8,2.2,1.9,1.9,3.3v0.1c-0.3,1.6-1.4,3-3.2,4.3c-1.4,0.9-2.9,1.6-4.4,2.2
	l-1.9,0.7c0.1,1.9,0.1,3.3-0.1,4.3l-0.1,0.3c-0.2,0.9-0.6,1.5-1.1,1.7c-1,0-1.4-1.2-1.1-3.7c0-1.2-0.1-1.8-0.3-1.8
	c0-0.1-0.3-0.2-0.7-0.3c-0.1-0.1-0.2-0.4-0.2-1l-0.1-0.1v-0.1c0-0.1,0.4-0.4,1-0.8c-0.1-1.2,0-3.5,0.5-6.8l0.3-2
	c-1.1-0.4-1.6-0.8-1.6-1V116c0.4-0.8,0.6-1.1,0.7-1.1l1.4-0.4C299.3,113.8,299.8,113.5,300.5,113.5 M300.8,116.9
	c-0.7,4.9-1,7.7-0.8,8.4c1.7-0.5,3.1-1.1,4.2-1.7c1.3-0.7,2.2-1.6,2.8-2.8c0.1-0.1,0.1-0.3,0.2-0.5c0.3-1.3-1.8-2.4-6.3-3.4H300.8
	L300.8,116.9z M314,111.4h0.1c0.5,0,0.7,0.2,0.6,0.6c0,0.9-0.1,1.8-0.3,2.9l-1.5,6.5l-0.1,0.7c-0.4,2-0.7,4.8-0.7,8.2l-0.1,0.5
	c-0.1,0.6-0.3,0.9-0.6,1c-0.2,0-0.6,0.1-1.2,0.2c-0.1-0.2-0.3-0.3-0.6-0.5c0.1-4.1,0.5-7.4,1-10l0.2-1.2c0.3-1.8,0.9-3.6,1.6-5.5
	c-0.1,0-0.1-0.3,0-0.9l-0.3-0.2c0.1,0,0.4-0.5,0.7-1.6C313.3,111.6,313.7,111.4,314,111.4 M322.5,121.5h0.2c0.5,0,0.7,0.4,0.7,1.2
	c-0.1,0.4-0.1,1.8,0,4c0.1,1.3,0.4,2.3,1,3.2c0.3,0.6,0.4,1.1,0.4,1.4v0.2c-0.1,0.3-0.3,0.4-0.6,0.4c-0.4,0.2-0.7,0.3-0.8,0.3
	c-0.6-0.2-1.1-0.8-1.5-1.6c-0.2-0.6-0.5-1.7-0.8-3.4l-0.2-0.3c-1.2,1.4-2.1,2.4-2.9,3.1c-1,0.8-2,1.2-3,1.2s-1.5-0.5-1.7-1.5
	l0.1-0.5v-0.1c0.3-1.3,1.5-3,3.7-5c1.3-0.9,2.7-1.6,4.3-2.3C321.7,121.6,322.1,121.5,322.5,121.5 M315.9,128.8
	c0.7,0,1.4-0.5,2.2-1.5c1.4-1.3,2.1-2.4,2.3-3.1h-0.1c-0.4,0.1-1.4,0.8-2.7,1.9C316.6,127,316.1,127.9,315.9,128.8"/>
<path class="st0" d="M334.9,119.3c0.4,0,0.6,0.1,0.8,0.4c-0.6,4.5-1.1,7.7-1.5,9.5l-0.1,0.3l-0.6,5.1l-0.1,0.6
	c-0.5,2.4-1.8,3.9-3.8,4.7c-0.4,0.1-0.9,0.2-1.3,0.2c-1.6,0-3-0.9-4.2-2.7c-0.3-0.5-0.4-1-0.3-1.4c0.3-0.3,0.7-0.4,1-0.4
	c0.2,0,0.7,0.3,1.3,0.9c0.1,0.1,0.3,0.1,0.6,0.1l1.6,1c0.2,0.1,0.4,0.1,0.6,0.1h0.1c0.8,0,1.4-0.7,1.9-2c0.3-0.7,0.5-1.7,0.8-2.9
	c0.4-2,0.6-4.2,0.6-6.5c-0.5,0.5-1.3,1.4-2.5,2.7c-0.9,0.8-1.6,1.2-1.9,1.2c-0.4,0.2-0.9,0.3-1.6,0.3h-0.1c-0.4,0-0.7-0.5-0.8-1.5
	c0-0.6,0-1.2,0.2-1.7c0.3-1.5,0.9-3.2,1.9-5.2c0.4-0.6,0.8-0.9,1.1-0.9h0.3c0.3,0,0.6,0.2,0.9,0.5v0.1c-0.1,0.6-0.6,1.8-1.5,3.7
	c-0.3,0.5-0.5,1.2-0.6,1.9l-0.1,0.6h0.1c0.3,0,0.9-0.4,1.7-1.1c0.1,0,0.3-0.3,0.6-0.8c1.8-2.4,2.8-3.9,2.9-4.5
	c0.2-0.3,0.3-0.7,0.4-1.1v-0.1c0.3-0.2,0.6-0.5,0.9-0.9h0.7V119.3z M349,113.5h0.3c1.6,0,2.7,1,3.3,3c0.2,0.9,0.2,1.5,0.1,1.9
	c-0.6,0.6-1,1-1.1,1c-0.3,0.1-0.4,0.2-0.5,0.2c-0.4,0-0.7-0.6-1-1.9c-0.1-0.9-0.5-1.5-0.9-1.7l-0.2-0.1c-0.8,0.2-1.5,0.5-2,1
	c-1.2,1.2-2,2.8-2.4,4.9l-0.1,0.4c-0.6,3.2-0.2,5.9,1.2,8c0.5,0.6,1,0.9,1.6,0.9c1.4,0,3-1.6,4.8-4.9c0.4-0.7,0.8-1.7,1.3-3
	c-0.7,0.1-2.2,0.4-4.5,0.8v-0.1c0-0.2-0.1-0.4-0.6-0.6c-0.2-0.2-0.3-0.3-0.2-0.5c0.2-0.9,1.5-1.5,3.9-1.9c1.3-0.2,2.5-0.2,3.7-0.2
	c0.4,0,0.5,0.1,0.5,0.2c0,0.3,0,0.7-0.1,1.2c-0.3,1.6-1.6,4.1-3.8,7.5c-1.2,1.6-2.6,2.8-4.2,3.4c-0.3,0.1-0.7,0.2-1.1,0.2h-0.1
	c-1.3,0-2.5-0.6-3.6-1.7c-1.6-2.8-2.1-5.8-1.5-9l0.1-0.4c0.6-3,1.9-5.5,3.8-7.4C346.8,114,347.9,113.5,349,113.5 M364,121.5h0.2
	c0.5,0,0.7,0.4,0.7,1.2c-0.1,0.4-0.1,1.8,0,4c0.1,1.3,0.4,2.3,1,3.2c0.3,0.6,0.4,1.1,0.4,1.4v0.2c-0.1,0.3-0.3,0.4-0.6,0.4
	c-0.4,0.2-0.7,0.3-0.8,0.3c-0.6-0.2-1.1-0.8-1.5-1.6c-0.2-0.6-0.5-1.7-0.8-3.4l-0.2-0.3c-1.2,1.4-2.1,2.4-2.9,3.1
	c-1,0.8-2,1.2-3,1.2s-1.5-0.5-1.7-1.5l0.1-0.5v-0.1c0.3-1.3,1.5-3,3.7-5c1.3-0.9,2.7-1.6,4.3-2.3C363.2,121.6,363.6,121.5,364,121.5
	 M357.4,128.8c0.7,0,1.4-0.5,2.2-1.5c1.4-1.3,2.1-2.4,2.3-3.1h-0.1c-0.4,0.1-1.4,0.8-2.7,1.9C358.1,127,357.6,127.9,357.4,128.8
	 M376.5,123.1h0.2c0.8,0.1,1.2,0.3,1.2,0.5c0.3,0.7,0.5,1.8,0.8,3.5c0.2,1.3,0.4,2.6,0.7,3.8c0,0.1-0.2,0.3-0.5,0.5
	c0,0.1-0.1,0.2-0.2,0.2c-1.2,0-1.9-0.6-2-1.9c-0.1-1.3-0.3-2.3-0.5-2.8c-1.8,3.1-2.9,4.7-3.4,4.7h-0.3c-0.9,0-1.3-0.9-1.1-2.8
	c0.2-1.5,0.2-2.2,0.1-2.2c-0.4,0.3-0.9,1.2-1.6,2.6c-0.7,1.6-1.5,2.4-2.2,2.4c-0.3,0-0.6-0.1-0.9-0.4l0.1-0.2v-0.2l-0.2-0.3
	c0.2-0.5,0.4-0.9,0.5-1.4l0.4-2.4l0.1-0.6c0.3,0,0.4-0.2,0.5-0.6v-0.2c0-0.1,0.2-0.1,0.6-0.3l0.2-0.2l0.4,0.2c0.1,0,0.7-0.4,1.5-1.3
	l0.6-0.4c1.2,0,1.9,0.8,2,2.3l0.1,0.4h0.1c0.3-0.5,0.7-1.1,1.1-1.9c0.2-0.3,0.5-0.6,0.7-0.7h0.3L376.5,123.1L376.5,123.1z
	 M384.8,121.7c1.3,0,2.2,0.8,2.6,2.4v1.2c-0.2,1.2-1.4,2.2-3.4,2.9c0.3,0.8,0.9,1.3,1.7,1.3c1.1,0,2.5-0.9,4.1-2.6
	c0.9-0.8,1.6-1.3,2-1.3h0.1l0.1,0.1l-0.1,0.4l-0.1,0.1c0,0.1,0.1,0.1,0.1,0.1c0.2,0,0.3-0.1,0.4-0.4h0.1c-0.1,0.4-0.6,1.1-1.5,2
	c-0.2,0.2-0.3,0.4-0.4,0.7c-0.4,0.1-0.6,0.2-0.6,0.4c-0.9,1.1-2.1,1.9-3.5,2.3c-0.4,0.1-0.8,0.1-1.1,0.1H385c-1.8,0-3.3-1.3-4.6-3.8
	v-0.1l0.4-2.8l0.1-0.3c0.2-1.2,0.8-1.9,1.6-2.2C383.4,121.9,384.2,121.7,384.8,121.7 M383,125.2c-0.1,0.7,0,1.2,0.3,1.5
	c0.3,0,0.8-0.2,1.4-0.6c0.2-0.3,0.2-0.5,0.3-0.7c0.1-0.7-0.1-1.2-0.7-1.5H384c-0.4,0-0.6,0.1-0.6,0.4
	C383.2,124.4,383.1,124.7,383,125.2"/>
<path class="st0" d="M395.9,122.4h0.3c0.9,0,1.3,0.2,1.4,0.6s0.1,0.7,0.1,0.8c-0.2,0.3-0.7,0.5-1.3,0.6c-1.8,0.3-2.8,0.5-2.8,0.7
	c0.2,0.4,0.8,0.8,1.8,1.1c1.8,0.4,3,0.8,3.8,1.2c0.7,0.5,0.9,1,0.8,1.8c-0.2,1.2-1.5,2.1-3.9,2.5c-0.7,0.1-1.3,0.2-1.9,0.2
	c-2.3-0.1-3.3-0.4-3.3-0.8c-0.2-0.3-0.2-0.5-0.2-0.9V130c0.1-0.4,0.4-0.9,1-1.2c1.2,0.6,2.2,0.9,3,0.9c0.7,0,1.3-0.2,1.9-0.6
	c-0.6-0.4-1.8-0.8-3.6-1.2c-1.8-0.5-2.6-1.2-2.4-2v-0.1c0.2-1.2,1.2-2.2,2.9-2.8C394.5,122.6,395.3,122.4,395.9,122.4 M402.7,129
	h0.1c0.7,0.2,1,0.5,0.9,0.9v0.1c-0.1,0.7-0.7,1.2-1.8,1.6h-0.4c-0.5,0-0.8-0.3-0.9-0.8v-0.3c0.1-0.5,0.5-1,1.1-1.3L402.7,129
	L402.7,129z M425.1,111.1c0.7,0,1.1,0.3,1.1,0.8v0.7l-0.4,2.6c-0.2,0.8-0.6,3.4-1.4,7.9c-0.1,0.6,0,1,0.1,1c2.4,0.3,3.6,0.8,3.7,1.5
	c-0.1,0.6-0.6,0.9-1.3,0.9h-0.2c-1.6-0.1-2.4-0.2-2.4-0.2l-0.1,0.1c0.1,0,0,0.4-0.2,1.2c0,0.5-0.1,0.1-0.6,4.1v0.4
	c-0.4,0.3-0.9,0.5-1.5,0.5c-0.7,0-1-0.1-0.9-0.4c0-1.1,0-0.7,0.5-4c0.1-1,0.1-1.5,0.1-1.5h-0.7l-3.8,0.1c-0.2,1.8-0.9,4.8-1,5.2
	c-0.2,1.3-0.5,2-1,2l-1.1-0.1l-0.5,0.1c-0.3,0,0.2-2.7,0.6-4.5c0.3-1.7,0.4-2.6,0.3-2.7l-0.3,0.1h-0.4c-1.1,0-1.8-0.2-2-0.6
	c-0.1-0.1-0.1-0.2-0.1-0.4c0.2-0.8,0.4-1.2,0.7-1.2h1.7c0.4,0,0.6-0.1,0.6-0.1c0.4-3.2,0.8-6.6,1.4-10.2v-0.1
	c0.5-1.7,0.9-2.5,1.4-2.5h0.4c0.8,0,1.1,0.2,1.1,0.4c0.1,0.2,0.2,0.4,0.1,0.7l-0.4,1.6c-0.3,1.4-0.7,4.4-1.3,9.1l-0.1,1h0.2
	c1.7,0,3.1-0.1,4.4-0.3c0.9-5.6,1.5-9.3,1.7-11l0.1-0.3c0.2-0.9,0.6-1.4,1.3-1.6h0.2L425.1,111.1z"/>
<path class="st0" d="M431.5,121.7c1.3,0,2.2,0.8,2.7,2.4v1.2c-0.2,1.2-1.4,2.2-3.4,2.9c0.3,0.8,0.9,1.3,1.7,1.3
	c1.1,0,2.5-0.9,4.1-2.6c0.9-0.8,1.6-1.3,2-1.3h0.1l0.1,0.1l-0.1,0.4l-0.1,0.1c0,0.1,0,0.1,0.1,0.1c0.2,0,0.3-0.1,0.4-0.4h0.1
	c-0.1,0.4-0.6,1.1-1.5,2c-0.1,0.2-0.3,0.4-0.4,0.7c-0.4,0.1-0.6,0.2-0.6,0.4c-0.9,1.1-2.1,1.9-3.5,2.3c-0.4,0.1-0.8,0.1-1.1,0.1
	h-0.4c-1.8,0-3.3-1.3-4.6-3.8v-0.1l0.4-2.8l0.1-0.3c0.2-1.2,0.8-1.9,1.6-2.2C430.1,121.9,430.9,121.7,431.5,121.7 M429.7,125.2
	c-0.1,0.7,0,1.2,0.3,1.5c0.3,0,0.8-0.2,1.4-0.6c0.2-0.3,0.3-0.5,0.3-0.7c0.1-0.7-0.1-1.2-0.7-1.5h-0.3c-0.4,0-0.6,0.1-0.6,0.4
	C429.9,124.4,429.8,124.7,429.7,125.2"/>
<path class="st0" d="M445.3,121.5h0.2c0.5,0,0.7,0.4,0.7,1.2c-0.1,0.4-0.1,1.8,0,4c0.1,1.3,0.4,2.3,1,3.2c0.3,0.6,0.4,1.1,0.3,1.4
	v0.2c-0.1,0.3-0.3,0.4-0.6,0.4c-0.4,0.2-0.7,0.3-0.8,0.3c-0.6-0.2-1.1-0.8-1.5-1.6c-0.2-0.6-0.5-1.7-0.8-3.4l-0.2-0.3
	c-1.2,1.4-2.1,2.4-2.9,3.1c-1,0.8-2,1.2-3,1.2s-1.5-0.5-1.7-1.5l0.1-0.5v-0.1c0.3-1.3,1.5-3,3.7-5c1.3-0.9,2.7-1.6,4.3-2.3
	C444.5,121.6,445,121.5,445.3,121.5 M438.8,128.8c0.7,0,1.4-0.5,2.2-1.5c1.4-1.3,2.1-2.4,2.3-3.1h-0.1c-0.4,0.1-1.4,0.8-2.7,1.9
	C439.5,127,438.9,127.9,438.8,128.8 M453,111.4h0.1c0.5,0,0.7,0.2,0.6,0.6c0,0.9-0.1,1.8-0.3,2.9l-1.5,6.5l-0.1,0.7
	c-0.4,2-0.6,4.8-0.7,8.2l-0.1,0.5c-0.1,0.6-0.3,0.9-0.6,1c-0.2,0-0.6,0.1-1.2,0.2c-0.1-0.2-0.3-0.3-0.6-0.5c0.1-4.1,0.5-7.4,1-10
	l0.2-1.2c0.4-1.8,0.9-3.6,1.6-5.5c-0.1,0-0.1-0.3,0-0.9l-0.2-0.2c0.1,0,0.4-0.5,0.7-1.6C452.3,111.6,452.7,111.4,453,111.4
	 M463.7,114.8h0.3c0.6,0,0.9,0.2,0.8,0.5l-0.1,0.7c-0.1,0.3-0.4,1.4-1.1,3.2l-0.2,0.8c2.1-0.8,4.3-1.8,6.6-3.2l1.7-1.1
	c1.2,0.1,1.7,0.4,1.6,0.8v0.2c-0.1,0.5-1.3,1.3-3.4,2.3c-1.2,0.7-3,1.6-5.6,2.8c-0.1,0-0.6,0.2-1.4,0.5l-0.2,0.5
	c-0.1,0.6,0.2,1.1,1.1,1.5c2.1,1.9,3.7,3.1,4.9,3.8c1.2,0.8,2.1,1.2,2.7,1.2c1.2,0,1.8,0.1,1.7,0.3c0.2,0.1,0.2,0.4,0.2,0.9
	c-0.8,0.3-1.5,0.5-2.2,0.5h-0.3c-1.7,0-3.9-1.1-6.4-3.2c-1.1-0.8-1.7-1.2-1.9-1.2l-0.1,0.2v0.2c-0.1,0.4-0.2,1.7-0.3,3.9l-0.2,0.8
	c-0.3,0.3-0.7,0.5-1.1,0.5h-0.2c-0.5-0.1-0.8-0.2-0.8-0.4l0.3-4.7c0.2-1.5,0.2-2.3,0-2.5c-0.1-0.2-0.5-0.6-1.3-1.2
	c-0.2-0.3-0.3-0.6-0.2-1l0.1-0.3c0-0.2,0.7-0.5,1.9-1l0.7-0.4l0.1-0.7l0.2-0.8c0.2-1.2,0.8-2.7,1.6-4.4
	C463.2,114.9,463.4,114.8,463.7,114.8 M478.6,117.6h0.2c0.6,0,1,0.2,1,0.5v0.4c-0.1,0.5-0.7,0.8-1.7,1h-0.3c-0.7-0.1-1-0.3-1-0.6
	v-0.3C477.3,117.9,477.8,117.6,478.6,117.6 M478,121.2c0.5,0,0.7,0.1,0.7,0.4c0,1.6-0.2,3.2-0.5,5l-0.2,1l-0.8,3.9
	c-0.2,0.1-0.5,0.2-0.9,0.3l-0.3,0.3c-0.2,0-0.4-0.2-0.5-0.5c0,0.1-0.1,0.2-0.1,0.2c-0.3-0.3-0.4-1-0.1-2.1l1.2-4.4
	c0.1-0.6,0.2-1.5,0.4-2.6C476.8,121.7,477.2,121.2,478,121.2 M489,116.1h0.4c0,0.2,0.1,0.3,0.4,0.5c0.2,0.2,0.2,1.1-0.1,2.8
	l-0.7,3.1v0.5c-0.3,1.7-0.1,3.7,0.7,6c0.4,0.5,0.5,0.9,0.5,1.2v0.3c0,0.1-0.3,0.5-0.8,1.1h-0.6c-0.9,0-1.3-0.6-1.5-1.6
	c-0.1-0.4-0.3-0.8-0.6-1.2c-0.5,0.8-1.3,1.5-2.5,2.2c-1.3,0.6-2.8,0.9-4.4,0.9c-0.5-0.4-0.8-0.7-0.8-0.7c0-0.6,0-1,0.1-1.3v-0.2
	c0.1-0.7,1.1-1.8,2.9-3.3c1.7-1.2,3-1.8,3.8-1.9c0.3-0.1,0.5-0.3,0.6-0.6c0.3-2.9,0.5-4.7,0.7-5.6l0.2-1l1.4-0.9
	C488.8,116.2,488.9,116.1,489,116.1 M481.6,129.5h0.3c1.1,0,2.1-0.8,3.1-2.5c0.2-0.3,0.3-0.5,0.3-0.6c-1.2,0.4-2.2,1-2.9,1.9
	C481.9,129,481.6,129.4,481.6,129.5 M496.3,122.4h0.3c0.9,0,1.3,0.2,1.4,0.6s0.1,0.7,0.1,0.8c-0.2,0.3-0.7,0.5-1.3,0.6
	c-1.8,0.3-2.8,0.5-2.8,0.7c0.2,0.4,0.8,0.8,1.8,1.1c1.8,0.4,3,0.8,3.8,1.2c0.7,0.5,0.9,1,0.8,1.8c-0.2,1.2-1.5,2.1-3.9,2.5
	c-0.7,0.1-1.3,0.2-1.9,0.2c-2.2-0.1-3.3-0.4-3.3-0.8c-0.2-0.3-0.2-0.5-0.2-0.9V130c0.1-0.4,0.4-0.9,1-1.2c1.2,0.6,2.2,0.9,3,0.9
	c0.7,0,1.3-0.2,1.9-0.6c-0.6-0.4-1.8-0.8-3.6-1.2c-1.8-0.5-2.6-1.2-2.4-2v-0.1c0.2-1.2,1.2-2.2,2.9-2.8
	C494.9,122.6,495.6,122.4,496.3,122.4 M503,129h0.2c0.7,0.2,1,0.5,0.9,0.9v0.1c-0.1,0.7-0.7,1.2-1.8,1.6h-0.4
	c-0.5,0-0.8-0.3-0.9-0.8v-0.3c0.1-0.5,0.5-1,1.1-1.3L503,129L503,129z"/>
<path class="st0" d="M410.2,60.2c-1.1,1.1-1.7,2.6-1.7,4.5v34.5c0,1.8,0.6,3.3,1.7,4.5c1.1,1.1,2.6,1.7,4.5,1.7
	c1.8,0,3.3-0.6,4.5-1.7s1.7-2.6,1.7-4.5V64.6c0-4.1-2.1-6.2-6.2-6.2C412.8,58.5,411.4,59,410.2,60.2 M409.3,41.1
	c-1.5,1.5-2.2,3.3-2.2,5.4c0,2.1,0.8,3.9,2.2,5.4c1.5,1.5,3.3,2.2,5.4,2.2s3.9-0.7,5.4-2.2s2.3-3.3,2.3-5.4c0-2.1-0.8-3.9-2.3-5.4
	s-3.3-2.2-5.4-2.2S410.8,39.6,409.3,41.1 M287.3,64.2c-3.8,3.8-5.7,8.5-5.7,14.1v20.9c0,1.8,0.6,3.3,1.7,4.5
	c1.1,1.1,2.6,1.7,4.5,1.7c1.8,0,3.3-0.6,4.5-1.7s1.7-2.6,1.7-4.5v-21c0-2.1,0.7-3.8,2.1-5.1c1.4-1.3,3.1-2.1,5.2-2.3
	c4.2-0.4,6.3-2.4,6.3-6.3c0-1.8-0.6-3.2-1.7-4.4c-1.2-1.2-2.6-1.7-4.4-1.7C295.8,58.5,291.1,60.4,287.3,64.2 M242.8,49.4
	c-1.1,1.2-1.7,2.7-1.7,4.5v31.6c0,5.6,1.9,10.4,5.7,14.1c3.8,3.8,8.5,5.7,14.2,5.7h5.8c4.1,0,6.2-2.1,6.2-6.3c0-1.8-0.6-3.3-1.7-4.5
	c-1.1-1.1-2.6-1.7-4.5-1.7H261c-2.1,0-3.9-0.7-5.3-2.2c-1.4-1.4-2.2-3.2-2.2-5.3V71.1h13.3c4.1,0,6.2-2.1,6.2-6.2
	c0-1.8-0.6-3.3-1.7-4.5c-1.1-1.1-2.6-1.7-4.5-1.7h-13.3v-4.9c0-1.8-0.6-3.3-1.7-4.5c-1.2-1.2-2.7-1.7-4.5-1.7
	C245.4,47.6,243.9,48.2,242.8,49.4 M326.8,89.6c-2.1-2.2-3.2-4.8-3.2-7.9s1.1-5.7,3.2-7.8c2.1-2.2,4.7-3.2,7.8-3.2
	c3.1,0,5.7,1.1,7.9,3.2c2.2,2.2,3.3,4.8,3.3,7.9v11.1h-11.1C331.6,92.9,329,91.8,326.8,89.6 M318,65c-4.5,4.5-6.8,10.1-6.8,16.7
	s2.3,12.2,6.8,16.8c4.5,4.5,10.1,6.8,16.7,6.8H352c0,0,3.3-0.6,4.5-1.7s1.7-2.6,1.7-4.5V81.8c0-6.7-2.3-12.3-6.8-16.8
	s-10.1-6.8-16.7-6.8C328,58.3,322.5,60.5,318,65 M388.1,41.6c-1.1,1.1-1.7,2.6-1.7,4.4v53.3c0,1.8,0.6,3.2,1.7,4.4
	c1.1,1.1,2.6,1.7,4.5,1.7c1.8,0,3.3-0.6,4.5-1.7s1.7-2.6,1.7-4.5V46c0-4.1-2.1-6.2-6.2-6.2C390.8,39.9,389.3,40.5,388.1,41.6
	 M450.5,39.5c-5.6,0-10.4,1.9-14.1,5.7c-3.8,3.8-5.7,8.6-5.7,14.2V99c0,1.8,0.6,3.4,1.7,4.5c1.1,1.2,2.6,1.8,4.5,1.8
	c1.8,0,3.3-0.6,4.5-1.8c1.2-1.2,1.7-2.7,1.7-4.5V85h9.4c1.8,0,3.3-0.6,4.5-1.7c1.1-1.1,1.7-2.6,1.7-4.5c0-4.2-2.1-6.3-6.2-6.3h-9.4
	v-13c0-2.1,0.7-3.9,2.2-5.3c1.4-1.4,3.2-2.2,5.3-2.2h3.2c4,0,6.2-2.6,6.2-6.2s-2.1-6.3-6.2-6.3H450.5L450.5,39.5z M477.1,81.7
	c0-3.1,1.1-5.7,3.2-7.8c2.1-2.2,4.7-3.2,7.8-3.2c0.8,0,1.6,0.1,2.4,0.3l-13.3,12.6C477.1,82.9,477.1,82.3,477.1,81.7 M471.4,65
	c-4.5,4.5-6.8,10.1-6.8,16.7s2.2,12.2,6.8,16.8c4.5,4.5,10.1,6.8,16.7,6.8h8.2c1.8,0,3.3-0.6,4.5-1.7c1.1-1.2,1.7-2.7,1.7-4.5
	s-0.6-3.3-1.7-4.5c-1.1-1.1-2.6-1.7-4.5-1.7h-8.2c-0.9,0-1.8-0.1-2.6-0.3l18.8-17.8c1.8-1.4,2.7-3,2.7-5.1c0-1.5-0.6-2.9-1.8-4.2
	c-4.6-4.8-10.3-7.2-17-7.2S475.9,60.5,471.4,65 M157.6,81.7c0-3.1,1.1-5.7,3.2-7.8c2.1-2.2,4.7-3.2,7.8-3.2c0.8,0,1.6,0.1,2.4,0.3
	l-13.3,12.6C157.7,82.9,157.6,82.3,157.6,81.7 M152,65c-4.5,4.5-6.8,10.1-6.8,16.7s2.3,12.2,6.8,16.8c4.5,4.5,10.1,6.8,16.7,6.8h8.2
	c1.8,0,3.3-0.6,4.5-1.7c1.1-1.2,1.7-2.7,1.7-4.5s-0.6-3.3-1.7-4.5c-1.1-1.1-2.6-1.7-4.5-1.7h-8.2c-0.9,0-1.8-0.1-2.6-0.3l18.8-17.8
	c1.8-1.4,2.7-3,2.7-5.1c0-1.5-0.6-2.9-1.8-4.2c-4.6-4.8-10.3-7.2-17-7.2C162,58.3,156.5,60.5,152,65 M229.7,105.3
	c-1.6,0-3-0.7-4.1-1.6c-1-0.8-2.2-2.1-3.5-3.8l-8.3-10.4l-8.5,10.4c-1.4,1.8-2.5,3.1-3.5,3.8c-1.1,0.8-2.3,1.6-3.9,1.6
	c-1.7,0-3.3-0.8-4.6-1.8c-1.3-1.1-1.9-2.3-1.9-3.7c0-1.4,0.9-3.3,2.7-5.7l10.8-13.5l-9.5-10.9c-1.8-2.2-2.7-4.1-2.7-5.9
	c0-1.4,0.6-2.7,1.8-3.7s2.7-1.9,4.5-1.9c1.6,0,3,0.8,4.1,1.7c1,0.8,2.1,2,3.4,3.7l7.4,9.9l7.2-9.8c1.3-1.8,2.5-3,3.5-3.8
	c1.1-0.8,2.4-1.5,3.9-1.5c1.8,0,3.4,0.8,4.6,1.7c1.3,1,1.9,2.3,1.9,3.7c0,1-0.3,2-0.7,2.9c-0.5,0.8-1.2,1.8-2.1,3l-9.5,10.9
	l10.8,13.5c1.9,2.5,2.8,4.4,2.8,5.8c0,1.5-0.6,2.7-1.9,3.7C233,104.5,231.5,105.3,229.7,105.3z M513.6,57.8v0.8h-2.2v5.7h-0.9v-5.7
	h-2.2v-0.8H513.6z M514.4,57.8h1.3l1.9,5.5l1.8-5.5h1.2v6.5h-0.8v-5.5l-1.9,5.5H517l-1.9-5.5v5.4h-0.8v-6.4H514.4z M546.4,112.9
	l-18.8-21.5c-1.2-1.4-3.3-1.5-4.6-0.3L501.5,110c-1.4,1.2-1.5,3.3-0.3,4.6l18.8,21.5c1.2,1.4,3.3,1.5,4.6,0.3l21.5-18.8
	C547.4,116.4,547.5,114.3,546.4,112.9z M512.8,114.5c-1.2,1.1-3.1,0.9-4.1-0.3c-1.1-1.2-0.9-3.1,0.3-4.1c1.2-1.1,3.1-0.9,4.1,0.3
	C514.1,111.6,514,113.4,512.8,114.5z M519.1,121.7c-1.2,1.1-3.1,0.9-4.1-0.3c-1.1-1.2-0.9-3.1,0.3-4.1c1.2-1.1,3.1-0.9,4.1,0.3
	C520.4,118.8,520.3,120.6,519.1,121.7z M525.4,128.9c-1.2,1.1-3.1,0.9-4.1-0.3c-1.1-1.2-0.9-3.1,0.3-4.1c1.2-1.1,3.1-0.9,4.1,0.3
	C526.7,126,526.6,127.8,525.4,128.9z M526.4,103.1c-1.2,1.1-3.1,0.9-4.1-0.3c-1.1-1.2-0.9-3.1,0.3-4.1c1.2-1.1,3.1-0.9,4.1,0.3
	C527.7,100.2,527.6,102,526.4,103.1z M532.7,110.2c-1.2,1.1-3.1,0.9-4.1-0.3c-1.1-1.2-0.9-3.1,0.3-4.1c1.2-1.1,3.1-0.9,4.1,0.3
	C534,107.3,533.9,109.2,532.7,110.2z M539,117.4c-1.2,1.1-3.1,0.9-4.1-0.3c-1.1-1.2-0.9-3.1,0.3-4.1c1.2-1.1,3.1-0.9,4.1,0.3
	C540.3,114.5,540.2,116.4,539,117.4z"/>
<path class="st0" d="M554.5,95l-5-28.2c-0.3-1.8-2-3-3.8-2.6l-28.2,5c-1.8,0.3-3,2-2.6,3.8l3.6,20.1l4.1-3.6
	c1.5-1.3,4.1-1.2,5.4,0.4l10,11.4l14-2.5C553.6,98.5,554.8,96.8,554.5,95z M523.9,79.5c-1.6,0.3-3.1-0.8-3.4-2.4
	c-0.3-1.6,0.8-3.1,2.4-3.4c1.6-0.3,3.1,0.8,3.4,2.4C526.5,77.7,525.5,79.2,523.9,79.5z M535.2,87.2c-1.6,0.3-3.1-0.8-3.4-2.4
	c-0.3-1.6,0.8-3.1,2.4-3.4c1.6-0.3,3.1,0.8,3.4,2.4C537.9,85.4,536.8,86.9,535.2,87.2z M546.6,94.9c-1.6,0.3-3.1-0.8-3.4-2.4
	c-0.3-1.6,0.8-3.1,2.4-3.4c1.6-0.3,3.1,0.8,3.4,2.4C549.2,93.1,548.2,94.6,546.6,94.9z"/>
</svg>
